<svg xmlns="http://www.w3.org/2000/svg" width="168" height="50" viewBox="0 0 168 50">
  <g id="그룹_14" data-name="그룹 14" transform="translate(-44.088 -7.603)">
    <g id="그룹_6" data-name="그룹 6" transform="translate(108.259 22.877)">
      <path id="패스_4" data-name="패스 4" d="M178.719,57.887v-6.4h2.495v6.4h9.079v2.241H171.35V57.887ZM186.2,54.26V44.373h-13.33V42.086h15.894V54.26Z" transform="translate(-171.35 -39.984)" fill="#464545"/>
      <path id="패스_5" data-name="패스 5" d="M217.078,48.569V46.651h2.357v1.918h5.683V46.651h2.357v1.918h4.273V50.74H212.8V48.569Zm10.1,7.461a3.985,3.985,0,0,1-.393,1.745,4.5,4.5,0,0,1-1.062,1.421,4.994,4.994,0,0,1-5.314.994,5.194,5.194,0,0,1-1.57-.994,4.693,4.693,0,0,1-1.04-1.421,4.077,4.077,0,0,1,0-3.489,4.706,4.706,0,0,1,2.61-2.425A5.069,5.069,0,0,1,222.3,51.5a4.982,4.982,0,0,1,1.884.358,4.943,4.943,0,0,1,2.6,2.425A3.989,3.989,0,0,1,227.174,56.03Zm-.046-13.606a3.9,3.9,0,0,1-.393,1.732,4.794,4.794,0,0,1-1.062,1.433,4.843,4.843,0,0,1-1.5.97,4.761,4.761,0,0,1-1.871.369,4.965,4.965,0,0,1-4.459-2.772,3.99,3.99,0,0,1,0-3.454,4.93,4.93,0,0,1,2.577-2.414,4.86,4.86,0,0,1,1.882-.369,4.779,4.779,0,0,1,1.871.369,4.881,4.881,0,0,1,1.5.971,4.758,4.758,0,0,1,1.062,1.443A3.925,3.925,0,0,1,227.127,42.424Zm-2.448,13.56a2.213,2.213,0,0,0-.7-1.652,2.358,2.358,0,0,0-1.7-.682,2.319,2.319,0,0,0-1.687.682,2.229,2.229,0,0,0-.693,1.652,2.267,2.267,0,0,0,.693,1.663,2.3,2.3,0,0,0,1.687.693,2.336,2.336,0,0,0,1.7-.693A2.251,2.251,0,0,0,224.679,55.984Zm-.046-13.56a2.216,2.216,0,0,0-.693-1.617,2.269,2.269,0,0,0-1.663-.693,2.348,2.348,0,0,0-2.333,2.311,2.256,2.256,0,0,0,.682,1.64,2.227,2.227,0,0,0,1.651.693,2.269,2.269,0,0,0,1.663-.693A2.241,2.241,0,0,0,224.633,42.424Z" transform="translate(-191.892 -37.919)" fill="#464545"/>
      <path id="패스_6" data-name="패스 6" d="M273.487,57.705V59.97H254.543V57.705h8.178V52.739h-6.653V41.766h2.564v8.709h13.63v2.264h-6.976v4.966Z" transform="translate(-212.573 -39.825)" fill="#464545"/>
      <path id="패스_7" data-name="패스 7" d="M305.021,49.424V47.506h-6.653V40.483h15.917v2.171H300.909v2.7h13.422v2.148h-6.745v1.918h8.2v2.171H296.844V49.424Zm6.353,7.531a4.312,4.312,0,0,1-.4,1.836,4.784,4.784,0,0,1-1.076,1.49,5.676,5.676,0,0,1-1.628,1.028,5.185,5.185,0,0,1-3.9,0,5.7,5.7,0,0,1-1.629-1.028,4.758,4.758,0,0,1-1.073-1.49,4.366,4.366,0,0,1,0-3.673,4.756,4.756,0,0,1,1.073-1.49,5.7,5.7,0,0,1,1.629-1.028,5.185,5.185,0,0,1,3.9,0,5.676,5.676,0,0,1,1.628,1.028,4.781,4.781,0,0,1,1.076,1.49A4.316,4.316,0,0,1,311.374,56.954Zm-2.472-.046a2.456,2.456,0,0,0-.762-1.814,2.594,2.594,0,0,0-3.65,0,2.453,2.453,0,0,0-.762,1.814,2.412,2.412,0,0,0,.762,1.8,2.623,2.623,0,0,0,3.65,0A2.415,2.415,0,0,0,308.9,56.908Z" transform="translate(-233.534 -39.189)" fill="#464545"/>
      <path id="패스_8" data-name="패스 8" d="M339.613,53.366h18.943V55.63h-8.2v5.314h-2.564V55.63h-8.178Zm4.043-10.072H354.49v-2.61h2.542v9.911H341.138V40.684h2.518Zm10.834,2.218H343.656v2.841H354.49Z" transform="translate(-254.727 -39.289)" fill="#464545"/>
    </g>
    <g id="그룹_13" data-name="그룹 13" transform="translate(44.088 7.603)">
      <g id="그룹_12" data-name="그룹 12">
        <g id="그룹_11" data-name="그룹 11">
          <g id="그룹_10" data-name="그룹 10">
            <g id="그룹_9" data-name="그룹 9">
              <g id="그룹_7" data-name="그룹 7">
                <path id="패스_9" data-name="패스 9" d="M82.719,31.464a9.024,9.024,0,0,0-12.832,2.691,9.033,9.033,0,0,1-16.324-2.48h0c-.009-.034-.015-.062-.025-.094s-.022-.076-.03-.115a11.57,11.57,0,0,1-.461-3.585c0-8.087,8.3-17.089,20.26-17.089,12.244,0,19.25,9.314,21.055,14.492-.03-.091-.059-.182-.09-.275a25.791,25.791,0,0,0-50.181,8.359c0,12.719,9.181,23.608,21.915,23.608,10.158,0,16.983-5.692,20.114-13.534A9.927,9.927,0,0,0,82.719,31.464Z" transform="translate(-44.088 -7.603)" fill="#002b51"/>
              </g>
              <g id="그룹_8" data-name="그룹 8" transform="translate(8.956 3.191)">
                <path id="패스_10" data-name="패스 10" d="M103.316,28.923c-1.5-5.05-8.565-14.994-21.216-14.994-11.959,0-20.26,9-20.26,17.088A11.569,11.569,0,0,0,62.3,34.6a7.576,7.576,0,0,1-.238-1.838c0-8.421,8.44-14.256,17.112-14.256A21.252,21.252,0,0,1,100.436,39.75,23.414,23.414,0,0,1,87.444,60.732l0,.006a25.775,25.775,0,0,0,17-24.233A25.41,25.41,0,0,0,103.316,28.923Z" transform="translate(-61.84 -13.929)" fill="#da0021"/>
              </g>
            </g>
          </g>
        </g>
      </g>
    </g>
  </g>
</svg>
