<svg xmlns="http://www.w3.org/2000/svg" xmlns:xlink="http://www.w3.org/1999/xlink" width="230" height="50" viewBox="0 0 230 50">
  <defs>
    <linearGradient id="linear-gradient" x1="0.246" y1="-0.133" x2="-0.363" y2="0.636" gradientUnits="objectBoundingBox">
      <stop offset="0" stop-color="#00a3e2"/>
      <stop offset="1" stop-color="#0072bb"/>
    </linearGradient>
    <linearGradient id="linear-gradient-2" x1="-0.532" y1="1.071" x2="0.184" y2="0.353" gradientUnits="objectBoundingBox">
      <stop offset="0" stop-color="#ffa81d"/>
      <stop offset="1" stop-color="#f36b21"/>
    </linearGradient>
  </defs>
  <g id="그룹_5" data-name="그룹 5" transform="translate(-168.423 -312.253)">
    <path id="패스_1" data-name="패스 1" d="M270.475,324.322h-1.939v29.484h4.218v-27Q272.754,324.322,270.475,324.322Zm126.015,7.444V343.11h4.043V331.662c0-4.4-1.289-5.885-6.311-5.885h-14.96v3.558h14.96C396.035,329.335,396.489,330.078,396.489,331.766Zm-142.984,2.968c.561-2.037,1.137-5.878,1.137-5.878v-1.815a3.061,3.061,0,0,0-.061-.607,1.782,1.782,0,0,0-2.026-1.472h-3.036a2.039,2.039,0,0,1,.781.973,3.232,3.232,0,0,1,.307,1.237v.872c-.506,5.395-1.653,10.666-7.25,16.132l2.966,2.782a26.1,26.1,0,0,0,5.406-7.5,24.943,24.943,0,0,0,6.659,6.974l2.337-3.344C258.773,341.85,254.622,337.728,253.505,334.734Zm10.743-10.412h-3.1a1.944,1.944,0,0,1,.768,1.205,6.3,6.3,0,0,1,.185,1.391v5.931h-5.141v3.511H262.1v14.562h4.152V326.588a2.675,2.675,0,0,0-.46-1.683A1.862,1.862,0,0,0,264.248,324.322Zm101.486,21.085H350.178V349h13.67c1.256,0,1.5.386,1.5,1.62v6.095h4.077V349.6C369.429,346.676,368.524,345.407,365.734,345.407Zm3.547-18.782a2.042,2.042,0,0,0-2.315-2.3H363.6a2.231,2.231,0,0,1,.867,1.08,3.456,3.456,0,0,1,.323,1.371v17.02h4.494v-6.845h4.626v-3.509h-4.626ZM393.693,346.7v-7.848a1.84,1.84,0,0,0-2.086-2.079h-1.961V346.7H386.5v-7.848a1.841,1.841,0,0,0-2.086-2.079H381.38a2.055,2.055,0,0,1,.781.975,3.188,3.188,0,0,1,.294,1.235V346.7h-6.612v3.557h28.563V346.7Zm-33.157-10.653a6.3,6.3,0,0,0-3.962-6.072h5.252v-3.591h-6.674v-.955a1.839,1.839,0,0,0-2.084-2.079h-3.038a2.047,2.047,0,0,1,.783.972,3.16,3.16,0,0,1,.29,1.24l.06.823h-7.087v3.591h5.49a6.343,6.343,0,0,0-4.061,6.072c0,3.98,3.347,6.764,7.566,6.764C357.329,342.814,360.536,340.03,360.536,336.049Zm-11.123.036a3.4,3.4,0,0,1,3.659-3.452,3.314,3.314,0,0,1,3.56,3.452,3.235,3.235,0,0,1-3.56,3.416C350.841,339.5,349.414,338.164,349.414,336.086Zm-13.071-11.764H334.4v9.116h-2.892v-6.85a2.687,2.687,0,0,0-.458-1.683,1.861,1.861,0,0,0-1.549-.583h-3.094a1.928,1.928,0,0,1,.763,1.205,6.174,6.174,0,0,1,.189,1.391v24h4.149V337.159H334.4v16.647h4.219v-27Q338.622,324.322,336.343,324.322Zm-32.924,2.3a2.041,2.041,0,0,0-2.313-2.3h-3.37a2.25,2.25,0,0,1,.869,1.08,3.475,3.475,0,0,1,.324,1.371V347.11h4.489V336.947h4.628v-3.509h-4.628ZM288.4,349.214v-3.558h-4.079V349.7c0,5.532,1.846,6.659,6.729,6.659h12.521v-3.593H291.708C288.919,352.771,288.4,352.139,288.4,349.214Zm27.993-7.778V330.013h8.348v-3.556H312.308v15.263c0,3.24,1.463,4.65,4.568,4.65h8.279v-3.558h-7.406C316.91,342.811,316.389,342.529,316.389,341.437Zm-22.015-5.328a6.3,6.3,0,0,0-3.959-6.073h5.25v-3.591h-6.671v-.958a1.842,1.842,0,0,0-2.088-2.077h-3.036a2.011,2.011,0,0,1,.78.973,3.14,3.14,0,0,1,.294,1.236l.058.826h-7.086v3.591H283.4a6.341,6.341,0,0,0-4.059,6.073c0,3.98,3.349,6.762,7.567,6.762C291.167,342.87,294.373,340.089,294.373,336.109Zm-11.124.034a3.4,3.4,0,0,1,3.661-3.451,3.312,3.312,0,0,1,3.558,3.451,3.235,3.235,0,0,1-3.558,3.419A3.318,3.318,0,0,1,283.249,336.143Z" transform="translate(-5.983 -0.88)" fill="#333"/>
    <g id="그룹_4" data-name="그룹 4" transform="translate(168.423 312.253)">
      <g id="그룹_2" data-name="그룹 2" transform="translate(12.67)">
        <path id="패스_2" data-name="패스 2" d="M213.87,327.571a9.443,9.443,0,0,0,9.17-6.287H201.6s-9.988-.4-12.949,5.52c-2.789,5.575.48,9.84,2.622,11.85,0,0,.43.337.271.6s-.831.071-.831.071c-7.056-2.458-10.49-9.1-7.468-16.207,0,0,1.693-4.96,8.893-7.852,4.166-1.671,8.773-1.967,18.856-1.564,5.237.211,9.431.352,12.8.3,9.754-.159,12.458-1.705,12.458-1.705s.684-.227.5.373c-2.026,7.5-5.535,13.08-9.277,16.222a23.625,23.625,0,0,1-15.279,5.465l-13.868,0c-2.1,0-3.656-1.407-3.452-3.391a4.211,4.211,0,0,1,4.15-3.4Z" transform="translate(-182.14 -312.253)" fill="url(#linear-gradient)"/>
      </g>
      <g id="그룹_3" data-name="그룹 3" transform="translate(0 22.853)">
        <path id="패스_3" data-name="패스 3" d="M191.33,348.856a9.454,9.454,0,0,0-9.174,6.288H203.6s9.988.4,12.948-5.519c2.788-5.575-.479-9.836-2.621-11.848,0,0-.43-.337-.271-.6s.831-.073.831-.073c7.058,2.458,10.49,9.1,7.466,16.212,0,0-1.69,4.957-8.891,7.846-4.165,1.671-8.77,1.97-18.857,1.564-5.234-.207-9.43-.35-12.8-.3-9.755.163-12.46,1.711-12.46,1.711s-.684.223-.492-.379c2.026-7.5,5.532-13.078,9.277-16.218a23.584,23.584,0,0,1,15.277-5.465l13.87-.006c2.1,0,3.657,1.4,3.453,3.392a4.209,4.209,0,0,1-4.151,3.395Z" transform="translate(-168.423 -337.03)" fill="url(#linear-gradient-2)"/>
      </g>
    </g>
  </g>
</svg>
