<svg width="20" height="20" viewBox="0 0 20 20" fill="none" xmlns="http://www.w3.org/2000/svg">
<path d="M2.22396 7.84839L3.09896 7.84839L4.34896 9.51506L9.57812 9.51506L7.43229 2.22339L8.64062 2.22339L12.9323 9.51506L17.849 9.51506C18.1406 9.51506 18.3872 9.61575 18.5885 9.81714C18.7899 10.0185 18.8906 10.2651 18.8906 10.5567C18.8906 10.8484 18.7899 11.0949 18.5885 11.2963C18.3872 11.4977 18.1406 11.5984 17.849 11.5984L12.9323 11.5984L8.64062 18.8901L7.43229 18.8901L9.57812 11.5984L4.34896 11.5984L3.09896 13.2651L2.22396 13.2651L2.99479 10.5567L2.22396 7.84839Z" fill="black"/>
</svg>
