<svg width="17" height="16" viewBox="0 0 17 16" fill="none" xmlns="http://www.w3.org/2000/svg">
<path d="M10.7091 4.00065V11.0007C10.7091 12.474 9.47242 13.6673 7.94551 13.6673C6.4186 13.6673 5.18187 12.474 5.18187 11.0007V4.00065C5.18187 3.08065 5.95569 2.33398 6.90914 2.33398C7.8626 2.33398 8.63642 3.08065 8.63642 4.00065V10.334C8.63642 10.7007 8.32551 11.0007 7.94551 11.0007C7.56551 11.0007 7.2546 10.7007 7.2546 10.334V4.00065H6.21824V10.334C6.21824 11.254 6.99205 12.0007 7.94551 12.0007C8.89896 12.0007 9.67278 11.254 9.67278 10.334V4.00065C9.67278 2.52732 8.43605 1.33398 6.90914 1.33398C5.38223 1.33398 4.14551 2.52732 4.14551 4.00065V11.0007C4.14551 13.0273 5.84514 14.6673 7.94551 14.6673C10.0459 14.6673 11.7455 13.0273 11.7455 11.0007V4.00065H10.7091Z" fill="#797F8B"/>
</svg>
