<svg width="16" height="16" viewBox="0 0 16 16" fill="none" xmlns="http://www.w3.org/2000/svg">
<circle cx="8" cy="8" r="8" fill="#004998"/>
<path d="M9.9119 5.17854C10.0329 5.06276 10.1938 4.99875 10.3608 5.00002C10.5279 5.00129 10.6878 5.06774 10.8071 5.18535C10.9263 5.30296 10.9954 5.46253 10.9998 5.63038C11.0042 5.79824 10.9436 5.96126 10.8307 6.08504L7.4045 10.3931C7.34558 10.4569 7.27448 10.5081 7.19543 10.5436C7.11639 10.5791 7.03102 10.5983 6.94445 10.5999C6.85788 10.6015 6.77187 10.5855 6.69157 10.553C6.61127 10.5204 6.53832 10.4719 6.4771 10.4103L4.20498 8.12595C4.1417 8.06667 4.09095 7.99519 4.05575 7.91576C4.02055 7.83634 4.00163 7.7506 4.0001 7.66366C3.99857 7.57672 4.01448 7.49036 4.04687 7.40973C4.07926 7.32911 4.12748 7.25587 4.18863 7.19438C4.24979 7.1329 4.32263 7.08443 4.40283 7.05186C4.48302 7.01929 4.56891 7.0033 4.65539 7.00484C4.74186 7.00637 4.82714 7.0254 4.90614 7.06079C4.98514 7.09618 5.05624 7.1472 5.1152 7.21082L6.91332 9.01777L9.89559 5.19753C9.90096 5.19089 9.90669 5.18454 9.91276 5.17854H9.9119Z" fill="white"/>
</svg>
