<svg width="16" height="20" viewBox="0 0 16 20" fill="none" xmlns="http://www.w3.org/2000/svg">
<path d="M1.61538 19.1155C1.15513 19.1155 0.770833 18.9614 0.4625 18.653C0.154167 18.3447 0 17.9604 0 17.5002V4.73092C0 4.27067 0.154167 3.88637 0.4625 3.57804C0.770833 3.26971 1.15513 3.11554 1.61538 3.11554H3.3846V0.884766H4.46152V3.11554H11.6154V0.884766H12.6154V3.11554H14.3846C14.8449 3.11554 15.2292 3.26971 15.5375 3.57804C15.8458 3.88637 16 4.27067 16 4.73092V17.5002C16 17.9604 15.8458 18.3447 15.5375 18.653C15.2292 18.9614 14.8449 19.1155 14.3846 19.1155H1.61538ZM1.61538 18.1155H14.3846C14.5385 18.1155 14.6795 18.0514 14.8077 17.9232C14.9359 17.795 15 17.654 15 17.5002V8.73092H1V17.5002C1 17.654 1.0641 17.795 1.1923 17.9232C1.32052 18.0514 1.46154 18.1155 1.61538 18.1155ZM1 7.73092H15V4.73092C15 4.57708 14.9359 4.43606 14.8077 4.30784C14.6795 4.17964 14.5385 4.11554 14.3846 4.11554H1.61538C1.46154 4.11554 1.32052 4.17964 1.1923 4.30784C1.0641 4.43606 1 4.57708 1 4.73092V7.73092ZM8 12.2694C7.79358 12.2694 7.61378 12.1928 7.46058 12.0396C7.30738 11.8864 7.23077 11.7066 7.23077 11.5002C7.23077 11.2937 7.30738 11.1139 7.46058 10.9607C7.61378 10.8075 7.79358 10.7309 8 10.7309C8.20642 10.7309 8.38622 10.8075 8.53942 10.9607C8.69263 11.1139 8.76923 11.2937 8.76923 11.5002C8.76923 11.7066 8.69263 11.8864 8.53942 12.0396C8.38622 12.1928 8.20642 12.2694 8 12.2694ZM4 12.2694C3.79358 12.2694 3.61378 12.1928 3.46058 12.0396C3.30738 11.8864 3.23077 11.7066 3.23077 11.5002C3.23077 11.2937 3.30738 11.1139 3.46058 10.9607C3.61378 10.8075 3.79358 10.7309 4 10.7309C4.20642 10.7309 4.38622 10.8075 4.53942 10.9607C4.69263 11.1139 4.76923 11.2937 4.76923 11.5002C4.76923 11.7066 4.69263 11.8864 4.53942 12.0396C4.38622 12.1928 4.20642 12.2694 4 12.2694ZM12 12.2694C11.7936 12.2694 11.6138 12.1928 11.4606 12.0396C11.3074 11.8864 11.2308 11.7066 11.2308 11.5002C11.2308 11.2937 11.3074 11.1139 11.4606 10.9607C11.6138 10.8075 11.7936 10.7309 12 10.7309C12.2064 10.7309 12.3862 10.8075 12.5394 10.9607C12.6926 11.1139 12.7692 11.2937 12.7692 11.5002C12.7692 11.7066 12.6926 11.8864 12.5394 12.0396C12.3862 12.1928 12.2064 12.2694 12 12.2694ZM8 16.1155C7.79358 16.1155 7.61378 16.0389 7.46058 15.8857C7.30738 15.7325 7.23077 15.5527 7.23077 15.3463C7.23077 15.1399 7.30738 14.9601 7.46058 14.8069C7.61378 14.6537 7.79358 14.5771 8 14.5771C8.20642 14.5771 8.38622 14.6537 8.53942 14.8069C8.69263 14.9601 8.76923 15.1399 8.76923 15.3463C8.76923 15.5527 8.69263 15.7325 8.53942 15.8857C8.38622 16.0389 8.20642 16.1155 8 16.1155ZM4 16.1155C3.79358 16.1155 3.61378 16.0389 3.46058 15.8857C3.30738 15.7325 3.23077 15.5527 3.23077 15.3463C3.23077 15.1399 3.30738 14.9601 3.46058 14.8069C3.61378 14.6537 3.79358 14.5771 4 14.5771C4.20642 14.5771 4.38622 14.6537 4.53942 14.8069C4.69263 14.9601 4.76923 15.1399 4.76923 15.3463C4.76923 15.5527 4.69263 15.7325 4.53942 15.8857C4.38622 16.0389 4.20642 16.1155 4 16.1155ZM12 16.1155C11.7936 16.1155 11.6138 16.0389 11.4606 15.8857C11.3074 15.7325 11.2308 15.5527 11.2308 15.3463C11.2308 15.1399 11.3074 14.9601 11.4606 14.8069C11.6138 14.6537 11.7936 14.5771 12 14.5771C12.2064 14.5771 12.3862 14.6537 12.5394 14.8069C12.6926 14.9601 12.7692 15.1399 12.7692 15.3463C12.7692 15.5527 12.6926 15.7325 12.5394 15.8857C12.3862 16.0389 12.2064 16.1155 12 16.1155Z" fill="black"/>
</svg>
