<svg width="21" height="20" viewBox="0 0 21 20" fill="none" xmlns="http://www.w3.org/2000/svg">
<path d="M4.91345 17.976C4.51073 17.976 4.17448 17.8411 3.90469 17.5713C3.6349 17.3015 3.5 16.9652 3.5 16.5625V5.38943C3.5 4.98671 3.6349 4.65046 3.90469 4.38066C4.17448 4.11087 4.51073 3.97598 4.91345 3.97598H6.46152V2.02405H7.40383V3.97598H13.6635V2.02405H14.5385V3.97598H16.0865C16.4893 3.97598 16.8255 4.11087 17.0953 4.38066C17.3651 4.65046 17.5 4.98671 17.5 5.38943V16.5625C17.5 16.9652 17.3651 17.3015 17.0953 17.5713C16.8255 17.8411 16.4893 17.976 16.0865 17.976H4.91345ZM4.91345 17.101H16.0865C16.2212 17.101 16.3445 17.0449 16.4567 16.9327C16.5689 16.8205 16.625 16.6971 16.625 16.5625V8.88943H4.375V16.5625C4.375 16.6971 4.43109 16.8205 4.54326 16.9327C4.65545 17.0449 4.77885 17.101 4.91345 17.101ZM4.375 8.01443H16.625V5.38943C16.625 5.25483 16.5689 5.13143 16.4567 5.01924C16.3445 4.90706 16.2212 4.85098 16.0865 4.85098H4.91345C4.77885 4.85098 4.65545 4.90706 4.54326 5.01924C4.43109 5.13143 4.375 5.25483 4.375 5.38943V8.01443ZM10.5 11.9856C10.3194 11.9856 10.1621 11.9186 10.028 11.7845C9.89395 11.6504 9.82693 11.4931 9.82693 11.3125C9.82693 11.1319 9.89395 10.9746 10.028 10.8405C10.1621 10.7065 10.3194 10.6394 10.5 10.6394C10.6806 10.6394 10.8379 10.7065 10.972 10.8405C11.106 10.9746 11.1731 11.1319 11.1731 11.3125C11.1731 11.4931 11.106 11.6504 10.972 11.7845C10.8379 11.9186 10.6806 11.9856 10.5 11.9856ZM7 11.9856C6.81939 11.9856 6.66205 11.9186 6.528 11.7845C6.39395 11.6504 6.32693 11.4931 6.32693 11.3125C6.32693 11.1319 6.39395 10.9746 6.528 10.8405C6.66205 10.7065 6.81939 10.6394 7 10.6394C7.18061 10.6394 7.33795 10.7065 7.472 10.8405C7.60605 10.9746 7.67307 11.1319 7.67307 11.3125C7.67307 11.4931 7.60605 11.6504 7.472 11.7845C7.33795 11.9186 7.18061 11.9856 7 11.9856ZM14 11.9856C13.8194 11.9856 13.6621 11.9186 13.528 11.7845C13.394 11.6504 13.3269 11.4931 13.3269 11.3125C13.3269 11.1319 13.394 10.9746 13.528 10.8405C13.6621 10.7065 13.8194 10.6394 14 10.6394C14.1806 10.6394 14.3379 10.7065 14.472 10.8405C14.606 10.9746 14.6731 11.1319 14.6731 11.3125C14.6731 11.4931 14.606 11.6504 14.472 11.7845C14.3379 11.9186 14.1806 11.9856 14 11.9856ZM10.5 15.351C10.3194 15.351 10.1621 15.284 10.028 15.1499C9.89395 15.0158 9.82693 14.8585 9.82693 14.6779C9.82693 14.4973 9.89395 14.34 10.028 14.2059C10.1621 14.0718 10.3194 14.0048 10.5 14.0048C10.6806 14.0048 10.8379 14.0718 10.972 14.2059C11.106 14.34 11.1731 14.4973 11.1731 14.6779C11.1731 14.8585 11.106 15.0158 10.972 15.1499C10.8379 15.284 10.6806 15.351 10.5 15.351ZM7 15.351C6.81939 15.351 6.66205 15.284 6.528 15.1499C6.39395 15.0158 6.32693 14.8585 6.32693 14.6779C6.32693 14.4973 6.39395 14.34 6.528 14.2059C6.66205 14.0718 6.81939 14.0048 7 14.0048C7.18061 14.0048 7.33795 14.0718 7.472 14.2059C7.60605 14.34 7.67307 14.4973 7.67307 14.6779C7.67307 14.8585 7.60605 15.0158 7.472 15.1499C7.33795 15.284 7.18061 15.351 7 15.351ZM14 15.351C13.8194 15.351 13.6621 15.284 13.528 15.1499C13.394 15.0158 13.3269 14.8585 13.3269 14.6779C13.3269 14.4973 13.394 14.34 13.528 14.2059C13.6621 14.0718 13.8194 14.0048 14 14.0048C14.1806 14.0048 14.3379 14.0718 14.472 14.2059C14.606 14.34 14.6731 14.4973 14.6731 14.6779C14.6731 14.8585 14.606 15.0158 14.472 15.1499C14.3379 15.284 14.1806 15.351 14 15.351Z" fill="black"/>
</svg>
