<svg width="21" height="20" viewBox="0 0 21 20" fill="none" xmlns="http://www.w3.org/2000/svg">
<path d="M19.0693 9.33682C18.5574 9.33682 18.1386 9.75563 18.1386 10.2675V13.4923C18.1386 13.8693 17.8315 14.1764 17.4546 14.1764H6.82146L5.81166 15.8191L4.80186 14.1764H3.55009C3.17316 14.1764 2.86603 13.8693 2.86603 13.4923V4.21804C2.86603 3.84111 3.17316 3.53398 3.55009 3.53398H11.3679C11.8797 3.53398 12.2986 3.11517 12.2986 2.6033C12.2986 2.09142 11.8797 1.67261 11.3679 1.67261H3.54543C2.14009 1.67261 1 2.8127 1 4.21804V13.4877C1 14.893 2.14009 16.0331 3.54543 16.0331H3.75949L4.83909 17.7875C5.04849 18.1272 5.41146 18.3273 5.807 18.3273C6.2072 18.3273 6.56552 18.1272 6.77957 17.7828L7.85917 16.0285H17.4546C18.8599 16.0285 20 14.8884 20 13.483V10.2582C20 9.74633 19.5812 9.32752 19.0693 9.32752V9.33682Z" fill="#222222"/>
<path d="M12.0054 5.43753C11.4935 5.43753 11.0747 5.85634 11.0747 6.36822C11.0747 6.8801 11.4935 7.29891 12.0054 7.29891H14.239V9.53256C14.239 10.0444 14.6579 10.4632 15.1697 10.4632C15.6816 10.4632 16.1004 10.0444 16.1004 9.53256V7.29891H18.3341C18.846 7.29891 19.2648 6.8801 19.2648 6.36822C19.2648 5.85634 18.846 5.43753 18.3341 5.43753H16.1004V3.20388C16.1004 2.692 15.6816 2.27319 15.1697 2.27319C14.6579 2.27319 14.239 2.692 14.239 3.20388V5.43753H12.0054Z" fill="#222222"/>
</svg>
