<svg width="20" height="20" viewBox="0 0 20 20" fill="none" xmlns="http://www.w3.org/2000/svg">
<path d="M1.66683 7.29163L2.54183 7.29163L3.79183 8.95829L9.021 8.95829L6.87516 1.66663L8.0835 1.66663L12.3752 8.95829L17.2918 8.95829C17.5835 8.95829 17.83 9.05899 18.0314 9.26038C18.2328 9.46177 18.3335 9.70829 18.3335 9.99996C18.3335 10.2916 18.2328 10.5382 18.0314 10.7395C17.83 10.9409 17.5835 11.0416 17.2918 11.0416L12.3752 11.0416L8.0835 18.3333L6.87516 18.3333L9.021 11.0416L3.79183 11.0416L2.54183 12.7083L1.66683 12.7083L2.43766 9.99996L1.66683 7.29163Z" fill="black"/>
</svg>
