<svg width="20" height="20" viewBox="0 0 20 20" fill="none" xmlns="http://www.w3.org/2000/svg">
<rect width="20" height="20" fill="white"/>
<path d="M6.95768 16.8839H3.85001C3.17918 16.8839 2.63353 16.3382 2.63353 15.6675V5.6852C2.63353 5.01449 3.1793 4.46872 3.85001 4.46872H8.71228L8.7184 5.16426H8.34122C7.96875 5.16426 7.66569 5.46732 7.66569 5.83979V8.26063C7.66569 8.6331 7.96875 8.93616 8.34122 8.93616H9.40758V9.91323H10.0411V8.91522C10.115 8.8964 10.1839 8.86534 10.2458 8.82452C10.3042 8.61028 10.3984 8.37746 10.5499 8.16722V5.83979C10.5499 5.46732 10.2469 5.16426 9.87441 5.16426H9.35193L9.34582 4.46872H9.72429C10.3951 4.46872 10.9408 5.01437 10.9408 5.6852V7.78463C11.1276 7.65722 11.3395 7.57486 11.5743 7.53886V5.6852C11.5743 4.67767 10.7646 3.85578 9.76182 3.83578C9.75405 2.82224 8.92722 2 7.91192 2H5.54144C4.52402 2 3.69589 2.82565 3.69154 3.84213C2.74542 3.92272 2 4.71849 2 5.6852V15.6675C2 16.5795 2.66353 17.3395 3.53319 17.4901V18.1539C3.53319 18.3288 3.67495 18.4706 3.8499 18.4706C4.02484 18.4706 4.1666 18.3288 4.1666 18.1539V17.5173H7.0578C6.99286 17.3225 6.95756 17.1141 6.95756 16.8977V16.8839H6.95768ZM9.35923 6.00991L9.35734 5.79779H9.87429C9.89747 5.79779 9.91641 5.81661 9.91641 5.83991V8.26075C9.91641 8.28393 9.89747 8.30287 9.87429 8.30287H8.34122C8.31804 8.30287 8.2991 8.28404 8.2991 8.26075V5.83991C8.2991 5.81673 8.31804 5.79779 8.34122 5.79779H8.72393L8.72581 6.01544C8.72734 6.18944 8.86887 6.32944 9.04252 6.32944C9.04346 6.32944 9.0444 6.32944 9.04534 6.32944C9.22028 6.32791 9.36087 6.18485 9.35934 6.00991H9.35923ZM5.54144 2.63353H7.91192C8.57769 2.63353 9.12005 3.1713 9.12805 3.83531H4.32531C4.33331 3.1713 4.87555 2.63353 5.54144 2.63353Z" fill="black"/>
<path d="M3.84991 5.04333C3.67497 5.04333 3.5332 5.1851 3.5332 5.36004V15.7506C3.5332 15.9255 3.67497 16.0673 3.84991 16.0673C4.02485 16.0673 4.16662 15.9255 4.16662 15.7506V5.36004C4.16662 5.1851 4.02485 5.04333 3.84991 5.04333Z" fill="black"/>
<path d="M6.78741 5.16431C6.61247 5.16431 6.4707 5.30607 6.4707 5.48101V15.8716C6.4707 16.0465 6.61247 16.1883 6.78741 16.1883C6.85023 16.1883 6.90871 16.1699 6.958 16.1384C7.04588 16.082 7.10412 15.9837 7.10412 15.8716V5.48101C7.10412 5.30607 6.96235 5.16431 6.78741 5.16431Z" fill="black"/>
<path d="M17.4903 10.3706H15.8057V9.56147C15.807 9.51158 15.8203 8.76334 15.3832 8.31169C15.188 8.11004 14.9392 7.99816 14.6426 7.97851V7.97522H11.7566V7.97851C11.46 7.99816 11.2112 8.11004 11.016 8.31169C10.5777 8.76464 10.592 9.50594 10.5935 9.55594V10.3706H8.9087C8.07622 10.3706 7.39893 11.0509 7.39893 11.8869V16.9139C7.39893 17.75 8.07622 18.4301 8.9087 18.4301H17.4902C18.3226 18.4301 18.9999 17.7499 18.9999 16.9139V11.8869C18.9999 11.0508 18.3226 10.3706 17.4902 10.3706H17.4903ZM14.6426 8.88311V8.49969C14.7925 8.51616 14.9131 8.57287 15.0093 8.67193C15.2953 8.96652 15.2871 9.52876 15.2866 9.55288V10.3708H14.9999L14.9826 9.639C14.9778 9.44547 14.9482 9.29358 14.8891 9.16099C14.8369 9.04417 14.7523 8.94899 14.6426 8.88311ZM14.4805 10.3706H11.9187C11.927 10.0262 11.9354 9.66676 11.9358 9.65147C11.9387 9.52876 11.9541 9.44017 11.9843 9.37276C12.0077 9.32052 12.0775 9.29405 12.192 9.29405H14.2073C14.3218 9.29405 14.3917 9.32052 14.415 9.37264C14.4452 9.44041 14.4606 9.529 14.4634 9.65147L14.4806 10.3706H14.4805ZM12.2758 8.77487V8.4944H14.1233V8.77487H12.2758ZM11.3891 8.67275C11.4855 8.57322 11.6062 8.51616 11.7566 8.49958V8.88299C11.647 8.94887 11.5625 9.04393 11.5104 9.16076C11.4512 9.29299 11.4214 9.44523 11.4167 9.63994C11.4167 9.64523 11.4152 9.703 11.4132 9.78829C11.4095 9.94241 11.4038 10.1861 11.3994 10.3706H11.1128V9.549L11.1127 9.54617C11.1079 9.39864 11.1485 8.92158 11.3892 8.67287L11.3891 8.67275ZM17.0819 11.3275H16.5588C16.3435 11.3275 16.1684 11.5271 16.1684 11.7725V12.0416H10.2308V11.7725C10.2308 11.5271 10.0556 11.3275 9.84035 11.3275H9.31729C9.102 11.3275 8.92694 11.5271 8.92694 11.7725V12.0416H7.91834V11.887C7.91834 11.3372 8.3627 10.8899 8.90894 10.8899H17.4904C18.0366 10.8899 18.4811 11.3372 18.4811 11.887V12.0416H17.4726V11.7725C17.4726 11.5271 17.2975 11.3275 17.0822 11.3275H17.0819ZM17.4902 17.9109H8.9087C8.36246 17.9109 7.91811 17.4636 7.91811 16.9139V12.5607H8.9267V12.8297C8.9267 13.0751 9.10188 13.2748 9.31706 13.2748H9.84012C10.0554 13.2748 10.2306 13.0751 10.2306 12.8297V12.5607H16.1682V12.8297C16.1682 13.0751 16.3432 13.2748 16.5585 13.2748H17.0817C17.297 13.2748 17.4722 13.0751 17.4722 12.8297V12.5607H18.4806V16.9139C18.4806 17.4636 18.0362 17.9109 17.4899 17.9109H17.4902ZM16.6876 12.0415V11.9095H16.9531V12.0415H16.6876ZM9.71153 12.5607V12.6925H9.446V12.5607H9.71153ZM9.446 12.0415V11.9095H9.71153V12.0415H9.446ZM16.9532 12.5607V12.6925H16.6877V12.5607H16.9532Z" fill="black"/>
<path d="M15.3426 15.5201C15.3197 15.4305 15.2502 15.3594 15.1609 15.3343C15.0719 15.3096 14.9755 15.3342 14.9097 15.3986L13.5933 16.6843C13.5271 16.7489 13.5003 16.8447 13.5231 16.9342C13.5461 17.0239 13.6156 17.0951 13.7045 17.12L15.4766 17.6174C15.4994 17.6238 15.5229 17.6269 15.5463 17.6269C15.6143 17.6269 15.6788 17.6007 15.7277 17.5531C15.7939 17.4885 15.8207 17.3927 15.7979 17.3032L15.3426 15.5201ZM15.1834 16.9959L14.2775 16.7415L14.9506 16.0842L15.1833 16.9958L15.1834 16.9959Z" fill="black"/>
<path d="M16.8206 14.5035C16.2995 14.5035 15.8755 14.9274 15.8755 15.4485C15.8755 15.9697 16.2994 16.3937 16.8206 16.3937C17.3417 16.3937 17.7657 15.9697 17.7657 15.4485C17.7657 14.9274 17.3417 14.5035 16.8206 14.5035ZM16.8206 15.0225C16.8824 15.0225 16.9427 15.036 16.9978 15.0612L16.4014 15.3723C16.4374 15.1736 16.6116 15.0224 16.8204 15.0224L16.8206 15.0225ZM16.8206 15.8744C16.7571 15.8744 16.6955 15.8604 16.6394 15.8338L17.2404 15.5203C17.2062 15.7211 17.0309 15.8744 16.8206 15.8744Z" fill="black"/>
</svg>
