<svg width="20" height="20" viewBox="0 0 20 20" fill="none" xmlns="http://www.w3.org/2000/svg">
<rect width="20" height="20" fill="white"/>
<path fill-rule="evenodd" clip-rule="evenodd" d="M3.49667 3.99918C3.35018 3.99918 3.22825 4.12112 3.22825 4.2676V16.5067C3.22825 16.6532 3.35018 16.7751 3.49667 16.7751H9.8704V17.7788H3.49667C2.79589 17.7788 2.22461 17.2075 2.22461 16.5067V4.2676C2.22461 3.56682 2.79589 2.99554 3.49667 2.99554H13.0399C13.7407 2.99554 14.312 3.56682 14.312 4.2676V11.7312H13.3084V4.2676C13.3084 4.12112 13.1864 3.99918 13.0399 3.99918H3.49667Z" fill="black"/>
<path d="M10.6066 3.32758H5.92742C5.82108 3.32758 5.73486 3.41379 5.73486 3.52014V5.04136C5.73486 5.14771 5.82108 5.23392 5.92742 5.23392H10.6066C10.713 5.23392 10.7992 5.14771 10.7992 5.04136V3.52014C10.7992 3.41379 10.713 3.32758 10.6066 3.32758Z" fill="black"/>
<path d="M9.74459 2.22498H6.79457C6.72438 2.22498 6.66748 2.28188 6.66748 2.35207V3.37263C6.66748 3.44282 6.72438 3.49972 6.79457 3.49972H9.74459C9.81478 3.49972 9.87168 3.44282 9.87168 3.37263V2.35207C9.87168 2.28188 9.81478 2.22498 9.74459 2.22498Z" fill="black"/>
<path d="M5.43877 6.63013H4.34888C4.13193 6.63013 3.95605 6.806 3.95605 7.02295V8.11284C3.95605 8.32979 4.13193 8.50566 4.34888 8.50566H5.43877C5.65572 8.50566 5.83159 8.32979 5.83159 8.11284V7.02295C5.83159 6.806 5.65572 6.63013 5.43877 6.63013Z" fill="black"/>
<path d="M12.1623 7.14862H7.02476C6.79292 7.14862 6.60498 7.33656 6.60498 7.5684C6.60498 7.80024 6.79292 7.98818 7.02476 7.98818H12.1623C12.3941 7.98818 12.582 7.80024 12.582 7.5684C12.582 7.33656 12.3941 7.14862 12.1623 7.14862Z" fill="black"/>
<path d="M5.43877 9.91321H4.34888C4.13193 9.91321 3.95605 10.0891 3.95605 10.306V11.3959C3.95605 11.6129 4.13193 11.7887 4.34888 11.7887H5.43877C5.65572 11.7887 5.83159 11.6129 5.83159 11.3959V10.306C5.83159 10.0891 5.65572 9.91321 5.43877 9.91321Z" fill="black"/>
<path d="M10.7989 10.4281H7.02476C6.79292 10.4281 6.60498 10.616 6.60498 10.8479C6.60498 11.0797 6.79292 11.2677 7.02476 11.2677H10.7989C11.0308 11.2677 11.2187 11.0797 11.2187 10.8479C11.2187 10.616 11.0308 10.4281 10.7989 10.4281Z" fill="black"/>
<path d="M5.43877 13.1926H4.34888C4.13193 13.1926 3.95605 13.3685 3.95605 13.5854V14.6753C3.95605 14.8923 4.13193 15.0682 4.34888 15.0682H5.43877C5.65572 15.0682 5.83159 14.8923 5.83159 14.6753V13.5854C5.83159 13.3685 5.65572 13.1926 5.43877 13.1926Z" fill="black"/>
<path d="M9.65898 13.7094H7.02476C6.79292 13.7094 6.60498 13.8973 6.60498 14.1291C6.60498 14.361 6.79292 14.5489 7.02476 14.5489H9.65898C9.89082 14.5489 10.0788 14.361 10.0788 14.1291C10.0788 13.8973 9.89082 13.7094 9.65898 13.7094Z" fill="black"/>
<path d="M17.9332 13.4853C17.9294 13.3698 17.8908 13.2735 17.8446 13.1734C17.7753 13.027 17.6675 12.9269 17.5211 12.873C17.3748 12.819 17.2284 12.8267 17.0821 12.8961L15.3182 13.8088L12.064 12.4185L11.4632 12.6997L13.6468 14.5906L11.9561 15.5765L11.236 15.1991L10.8008 15.4032L11.648 16.6741L17.9024 13.7318C17.9024 13.7318 17.9448 13.5854 17.9332 13.4853Z" fill="black"/>
</svg>
