<svg width="20" height="20" viewBox="0 0 20 20" fill="none" xmlns="http://www.w3.org/2000/svg">
<rect width="20" height="20" fill="white"/>
<path d="M10.0009 2.22339C5.72314 2.22339 2.22314 5.72339 2.22314 10.0012C2.22314 14.2789 5.72314 17.7789 10.0009 17.7789C14.2787 17.7789 17.7787 14.2789 17.7787 10.0012C17.7787 5.72339 14.2787 2.22339 10.0009 2.22339ZM16.8065 10.0012C16.8065 11.0706 16.612 12.0428 16.1259 12.9178L13.5009 11.7512C13.6954 11.1678 13.8898 10.5845 13.8898 10.0012C13.8898 7.86228 12.1398 6.11228 10.0009 6.11228C9.51481 6.11228 9.12592 6.2095 8.63981 6.40394L7.47314 3.68172C8.05648 3.48728 8.63981 3.29283 9.22314 3.19561L9.51481 6.11228H10.0009V3.19561C13.7926 3.19561 16.8065 6.2095 16.8065 10.0012ZM10.0009 7.0845C11.6537 7.0845 12.9176 8.34839 12.9176 10.0012C12.9176 11.6539 11.6537 12.9178 10.0009 12.9178C8.34814 12.9178 7.08426 11.6539 7.08426 10.0012C7.08426 8.34839 8.34814 7.0845 10.0009 7.0845ZM3.19537 10.0012C3.19537 8.93172 3.38981 7.9595 3.87592 7.0845L6.50092 8.25117C6.30648 8.8345 6.11203 9.41783 6.11203 10.0012C6.11203 12.1401 7.86203 13.8901 10.0009 13.8901C10.487 13.8901 10.8759 13.7928 11.362 13.5984L12.5287 16.3206C11.9454 16.5151 11.362 16.7095 10.7787 16.8067L10.487 13.8901H10.0009V16.8067C6.20926 16.8067 3.19537 13.7928 3.19537 10.0012Z" fill="black"/>
<path d="M11.9441 10.001C11.9499 10.26 11.904 10.5175 11.8089 10.7584C11.7139 10.9993 11.5717 11.2189 11.3907 11.4041C11.2096 11.5893 10.9934 11.7365 10.7547 11.837C10.516 11.9375 10.2596 11.9893 10.0006 11.9894C9.74159 11.9895 9.48518 11.9378 9.24642 11.8374C9.00766 11.737 8.79137 11.5899 8.61023 11.4048C8.4291 11.2197 8.28678 11.0002 8.19163 10.7593C8.09648 10.5184 8.05041 10.2609 8.05614 10.002C8.06737 9.49394 8.27705 9.01048 8.64029 8.65509C9.00352 8.29971 9.49145 8.10065 9.99962 8.10052C10.5078 8.1004 10.9958 8.29921 11.3592 8.65441C11.7226 9.00961 11.9326 9.49297 11.9441 10.001Z" fill="black"/>
</svg>
