<svg width="20" height="20" viewBox="0 0 20 20" fill="none" xmlns="http://www.w3.org/2000/svg">
<rect width="20" height="20" fill="white"/>
<path d="M10.0009 3.27725C13.7142 3.27725 16.7248 6.28792 16.7248 10.0012C16.7248 13.7144 13.7142 16.7251 10.0009 16.7251C6.28768 16.7251 3.277 13.7144 3.277 10.0012C3.277 6.28792 6.28768 3.27725 10.0009 3.27725ZM10.0009 2.22339C5.71127 2.22339 2.22314 5.71151 2.22314 10.0012C2.22314 14.2908 5.71127 17.7789 10.0009 17.7789C14.2906 17.7789 17.7787 14.2908 17.7787 10.0012C17.7787 5.71151 14.2881 2.22339 10.0009 2.22339Z" fill="black"/>
<path d="M5.19632 8.18927H6.67568C6.94533 8.18927 7.18035 8.23875 7.37826 8.33523C7.57616 8.43171 7.72707 8.57272 7.83344 8.75331C7.93982 8.9339 7.99177 9.14665 7.99177 9.38909C7.99177 9.63647 7.93982 9.84675 7.83097 10.0249C7.72212 10.203 7.56627 10.3366 7.36341 10.4281L8.12041 11.811H7.18529L6.51983 10.5666H6.04485V11.811H5.19385V8.19174L5.19632 8.18927ZM6.49757 9.88386C6.90822 9.88633 7.11355 9.72306 7.11355 9.38909C7.11355 9.21839 7.0616 9.09222 6.9577 9.00564C6.8538 8.91905 6.70042 8.877 6.50004 8.877H6.0498V9.88138H6.50004L6.49757 9.88386Z" fill="black"/>
<path d="M8.47314 8.15912H10.9792V8.85427H9.32415V9.61869H10.8505V10.3138H9.32415V11.0832H10.9841V11.7784H8.47314V8.15912Z" fill="black"/>
<path d="M13.6629 9.01286C13.5441 8.92875 13.3957 8.88669 13.2201 8.88916C13.0444 8.88916 12.8886 8.93369 12.7599 9.02028C12.6313 9.10686 12.5274 9.23303 12.4581 9.39878C12.3889 9.56452 12.3518 9.76243 12.3518 9.99497C12.3518 10.2275 12.3864 10.4304 12.4557 10.5986C12.5249 10.7668 12.6239 10.893 12.755 10.9796C12.8861 11.0661 13.042 11.1107 13.2225 11.1107C13.46 11.1107 13.6456 11.0538 13.7792 10.9375C13.9127 10.8212 13.982 10.6654 13.987 10.465H13.2572V9.83912H14.8083V10.3141C14.8083 10.6283 14.7415 10.9029 14.6054 11.1379C14.4694 11.3729 14.2838 11.551 14.0439 11.6747C13.8039 11.7984 13.5293 11.8603 13.2176 11.8603C12.8737 11.8603 12.5719 11.786 12.3097 11.6351C12.0475 11.4842 11.8446 11.269 11.6987 10.9895C11.5527 10.7099 11.481 10.3809 11.481 10.0049C11.481 9.62884 11.5552 9.28993 11.7061 9.00791C11.857 8.72589 12.0623 8.51066 12.3245 8.36223C12.5868 8.2138 12.8787 8.13959 13.2003 8.13959C13.4749 8.13959 13.7272 8.19154 13.9548 8.29544C14.1824 8.39934 14.3679 8.5453 14.5114 8.73084C14.6549 8.91638 14.7415 9.12913 14.7712 9.36909H13.9053C13.8633 9.21571 13.7841 9.09697 13.6629 9.01286Z" fill="black"/>
</svg>
