<svg width="20" height="20" viewBox="0 0 20 20" fill="none" xmlns="http://www.w3.org/2000/svg">
<g clip-path="url(#clip0_118_8877)">
<path d="M13.9185 8.80646C15.0281 9.00001 16.0601 8.65323 16.8206 7.86291C17.4568 7.20162 17.775 6.3871 17.775 5.42743C17.775 5.19356 17.7517 4.95969 17.7129 4.74194C17.6741 4.50807 17.5887 4.26614 17.4801 4.0242L17.1154 3.2742L15.0359 5.43549L14.4617 4.83872L16.58 2.6371L15.7886 2.28227C15.579 2.18549 15.3618 2.11291 15.1523 2.06452C14.935 2.01614 14.71 1.99194 14.4772 1.99194C13.5616 1.99194 12.7701 2.32259 12.1339 2.98388C11.4976 3.64517 11.1794 4.45969 11.1794 5.41936C11.1794 5.62098 11.2027 5.83065 11.2415 6.0242C11.2493 6.08065 11.2648 6.1371 11.2803 6.19356L10.194 7.32259L9.69738 6.80646L10.2405 6.24194L9.27061 5.23388L11.0553 3.37904L10.644 2.95162C10.3259 2.62098 9.98448 2.37904 9.61203 2.23388C8.88264 1.93549 8.09117 1.93549 7.36178 2.23388C6.98933 2.3871 6.64015 2.62904 6.32978 2.95162L3.16392 6.25001L3.55189 6.65323H3.12512L2 7.82259L5.17362 11.121L6.29874 9.95162V9.50807L6.70999 9.93549L7.25315 9.37098L7.74976 9.8871L2.38797 15.4516L4.83996 18L13.7245 8.76614C13.7866 8.78227 13.8564 8.79839 13.9185 8.80646ZM5.12706 9.37098L3.6838 7.87098H5.12706V9.37098ZM4.8322 16.2903L4.02522 15.4516L9.37924 9.8871L7.23763 7.6613L6.69447 8.22581L6.35306 7.87098L4.80116 6.25807L7.14452 3.82259C7.34627 3.61291 7.55577 3.45969 7.7808 3.37098C8.24636 3.18549 8.71969 3.18549 9.1775 3.37098C9.23181 3.39517 9.28613 3.41936 9.34045 3.45162L7.61009 5.25001L8.58002 6.25807L8.03686 6.82259L10.1785 9.04839L12.5994 6.53227L12.4753 6.16936C12.4365 6.0484 12.3977 5.91936 12.3744 5.79033C12.3511 5.66936 12.3356 5.54839 12.3356 5.42743C12.3356 4.79839 12.5373 4.28227 12.9486 3.84678C13.3598 3.4113 13.8099 3.22581 14.3763 3.20969L12.8089 4.83872L15.0281 7.14517L16.5955 5.51614C16.58 6.10485 16.3783 6.59678 15.9825 7.00001C15.4859 7.51614 14.8341 7.73388 14.097 7.60485C13.9884 7.58872 13.8952 7.55646 13.7944 7.50807L13.4297 7.33065L4.83996 16.2823L4.8322 16.2903Z" fill="black"/>
<path d="M12.9329 10.1774L10.481 12.7258L15.5556 17.9999L18.0076 15.4516L12.9329 10.1774ZM12.126 12.7258L12.9329 11.887L16.3549 15.4516L15.5479 16.2903L12.126 12.7338V12.7258Z" fill="black"/>
</g>
<defs>
<clipPath id="clip0_118_8877">
<rect width="16" height="16" fill="white" transform="translate(2 2)"/>
</clipPath>
</defs>
</svg>
