<svg width="20" height="20" viewBox="0 0 20 20" fill="none" xmlns="http://www.w3.org/2000/svg">
<rect width="20" height="20" fill="white"/>
<path d="M13.3323 8.47195C12.7004 8.47195 12.1031 8.59695 11.5476 8.81917L11.0615 6.70111L13.7629 3.99973C14.1656 3.61084 14.1656 2.93723 13.7629 2.5275C13.3601 2.11778 12.6934 2.12056 12.2906 2.5275L9.58925 5.22889L3.20036 3.75667L2.22119 4.73584L7.38091 7.43028L4.67952 10.1386L2.9573 9.89556L2.22119 10.6317L4.42952 11.8539L5.65869 14.0692L6.38786 13.3331L6.15175 11.5969L8.85314 8.90945L9.56147 10.2706C8.98161 10.9832 8.61572 11.8456 8.50626 12.7577C8.39679 13.6699 8.54824 14.5944 8.94302 15.4239C9.33781 16.2535 9.95974 16.9541 10.7367 17.4444C11.5136 17.9348 12.4136 18.1947 13.3323 18.1942C16.0198 18.1942 18.1934 16.0206 18.1934 13.3331C18.1934 10.6456 16.0198 8.47195 13.3323 8.47195ZM13.3323 16.8053C11.4156 16.8053 9.86008 15.2497 9.86008 13.3331C9.86008 11.4164 11.4156 9.86084 13.3323 9.86084C15.249 9.86084 16.8045 11.4164 16.8045 13.3331C16.8045 15.2497 15.249 16.8053 13.3323 16.8053ZM13.6795 13.5067V10.5553H12.6379V14.0275L15.1448 15.5275L15.6656 14.6803L13.6795 13.5067Z" fill="black"/>
</svg>
