<svg width="20" height="20" viewBox="0 0 20 20" fill="none" xmlns="http://www.w3.org/2000/svg">
<rect width="20" height="20" fill="white"/>
<path d="M15.28 7.66094H9.67746C9.4707 7.66094 9.30547 7.83258 9.30547 8.04164C9.30547 8.2507 9.4707 8.42234 9.67746 8.42234H15.28C15.4867 8.42234 15.652 8.2507 15.652 8.04164C15.652 7.83258 15.4867 7.66094 15.28 7.66094Z" fill="black" stroke="black" stroke-width="0.1"/>
<path d="M15.28 8.90117H9.67746C9.4707 8.90117 9.30547 9.07281 9.30547 9.28187C9.30547 9.49094 9.4707 9.66258 9.67746 9.66258H15.28C15.4867 9.66258 15.652 9.49094 15.652 9.28187C15.652 9.07281 15.4867 8.90117 15.28 8.90117Z" fill="black" stroke="black" stroke-width="0.1"/>
<path d="M15.2722 10.8914H9.66965C9.46295 10.8914 9.29766 11.0631 9.29766 11.2721C9.29766 11.4811 9.46295 11.6528 9.66965 11.6528H15.2722C15.4789 11.6528 15.6442 11.4811 15.6442 11.2721C15.6442 11.0631 15.4789 10.8914 15.2722 10.8914Z" fill="black" stroke="black" stroke-width="0.1"/>
<path d="M15.2722 12.4402H9.66965C9.46288 12.4402 9.29766 12.6119 9.29766 12.8209C9.29766 13.03 9.46288 13.2016 9.66965 13.2016H15.2722C15.4789 13.2016 15.6442 13.03 15.6442 12.8209C15.6442 12.6119 15.4789 12.4402 15.2722 12.4402Z" fill="black" stroke="black" stroke-width="0.1"/>
<path d="M5.77943 10.603C6.56011 10.603 7.19298 9.95296 7.19298 9.151C7.19298 8.34905 6.56011 7.69922 5.77943 7.69922C4.99876 7.69922 4.36572 8.34922 4.36572 9.151C4.36572 9.95279 4.9986 10.603 5.77943 10.603Z" fill="black"/>
<path d="M8.16153 13.5542C8.1303 12.7465 7.72459 11.9974 7.06112 11.5627C6.69791 11.3248 6.27143 11.1855 5.81517 11.1855C5.2351 11.1855 4.68964 11.4104 4.2593 11.7775C3.73718 12.2228 3.42936 12.8796 3.40006 13.576L3.39941 13.5921H8.16298L8.16153 13.5542Z" fill="black"/>
<path d="M15.9755 4.9H4.02453C2.84868 4.9 1.9 5.87823 1.9 7.07929V13.9207C1.9 15.1218 2.84868 16.1 4.02453 16.1H15.9755C17.1513 16.1 18.1 15.1218 18.1 13.9207V7.07929C18.1 5.87823 17.1513 4.9 15.9755 4.9ZM17.256 13.9205C17.256 14.6496 16.6789 15.2384 15.9755 15.2384H4.02453C3.32107 15.2384 2.74399 14.6496 2.74399 13.9205V7.07929C2.74399 6.35021 3.32107 5.76141 4.02453 5.76141H15.9755C16.6789 5.76141 17.256 6.35021 17.256 7.07929V13.9205Z" fill="black" stroke="black" stroke-width="0.2"/>
</svg>
