<svg width="20" height="20" viewBox="0 0 20 20" fill="none" xmlns="http://www.w3.org/2000/svg">
<path d="M9.99157 14.8388C10.2285 14.8388 10.4315 14.7545 10.5923 14.5943C10.753 14.4342 10.8376 14.2318 10.8376 13.9958C10.8376 13.7598 10.753 13.5574 10.5923 13.3973C10.4315 13.2371 10.2285 13.1528 9.99157 13.1528C9.75467 13.1528 9.55162 13.2371 9.39087 13.3973C9.23011 13.5574 9.14551 13.7598 9.14551 13.9958C9.14551 14.2318 9.23011 14.4342 9.39087 14.5943C9.55162 14.7545 9.75467 14.8388 9.99157 14.8388ZM9.14551 12.3098H10.8376V8.09485H9.14551V12.3098Z" fill="black"/>
<path d="M17.0646 18H2.92691C2.23314 18 1.60705 17.6375 1.26016 17.039C0.913278 16.4405 0.913278 15.7239 1.26016 15.1254L8.33326 2.95258C8.68014 2.35406 9.30623 2 10 2C10.6938 2 11.3199 2.35406 11.6667 2.95258L18.7398 15.1254C19.0867 15.7239 19.0867 16.4405 18.7398 17.039C18.393 17.6375 17.7669 18 17.0731 18H17.0646ZM2.36005 15.7576C2.19083 16.0527 2.30082 16.314 2.36005 16.4067C2.41927 16.5079 2.58848 16.7355 2.92691 16.7355H17.0731C17.4115 16.7355 17.5807 16.5079 17.64 16.4067C17.6992 16.3056 17.8092 16.0527 17.64 15.7576L10.5584 3.59326C10.3892 3.29821 10.1015 3.26449 9.99154 3.26449C9.88155 3.26449 9.59389 3.29821 9.42468 3.59326L2.36005 15.7576Z" fill="black"/>
</svg>
