<svg width="20" height="20" viewBox="0 0 20 20" fill="none" xmlns="http://www.w3.org/2000/svg">
<g clip-path="url(#clip0_118_8825)">
<path d="M18 5.77892L15.7532 3.60669L14.2595 5.05077C13.9177 4.83048 13.5591 4.63467 13.1835 4.46538H13.2447V1H6.49156V4.46742H6.57806C3.87764 5.67694 2 8.32034 2 11.3819C2 15.5836 5.53586 19 9.87975 19C14.2236 19 17.7595 15.5815 17.7595 11.3819C17.7595 9.8562 17.2911 8.43252 16.4873 7.23932L18 5.77688V5.77892ZM7.75738 2.2238H11.9768V4.03909C11.308 3.8596 10.6055 3.76374 9.87975 3.76374C9.15401 3.76374 8.43249 3.86368 7.75738 4.04725V2.2238ZM9.87975 17.7762C6.23207 17.7762 3.26582 14.9084 3.26582 11.3819C3.26582 7.8553 6.23207 4.98754 9.87975 4.98754C13.5274 4.98754 16.4937 7.8553 16.4937 11.3819C16.4937 14.9084 13.5274 17.7762 9.87975 17.7762Z" fill="black"/>
<path d="M10.5 10.1744V6.09912H9.23414V10.1723C8.7911 10.3946 8.4873 10.8413 8.4873 11.3553C8.4873 12.0896 9.10545 12.6872 9.86494 12.6872C10.6244 12.6872 11.2426 12.0896 11.2426 11.3553C11.2426 10.8413 10.9409 10.3967 10.5 10.1744Z" fill="black"/>
</g>
<defs>
<clipPath id="clip0_118_8825">
<rect width="16" height="18" fill="white" transform="translate(2 1)"/>
</clipPath>
</defs>
</svg>
