<svg width="20" height="20" viewBox="0 0 20 20" fill="none" xmlns="http://www.w3.org/2000/svg">
<path d="M16.665 11.3338C17.4019 11.3338 18 10.734 18 9.9973C18 9.26061 17.4001 8.66081 16.665 8.66081H16.1281V4.67117H16.665C17.4019 4.67117 18 4.07137 18 3.33649C18 2.6016 17.4001 2 16.665 2H3.33679C2.59993 2 2 2.5998 2 3.33649C2 4.07317 2.59993 4.67117 3.33679 4.67117H3.93672V8.66261H3.33679C2.59993 8.66261 2 9.26241 2 9.9991C2 10.7358 2.59993 11.3356 3.33679 11.3356H3.93672V15.327H3.33679C2.59993 15.327 2 15.9268 2 16.6635C2 17.4002 2.59993 18 3.33679 18H16.665C17.4019 18 18 17.4002 18 16.6635C18 15.9268 17.4001 15.327 16.665 15.327H16.1281V11.3356H16.665V11.3338ZM3.33679 3.58685C3.19806 3.58685 3.08636 3.47518 3.08636 3.33649C3.08636 3.19779 3.19806 3.08612 3.33679 3.08612H16.665C16.8037 3.08612 16.9154 3.19779 16.9154 3.33649C16.9154 3.47518 16.8037 3.58685 16.665 3.58685H3.33679ZM12.8366 11.948V11.9264C12.8348 11.9048 12.833 11.8831 12.8312 11.8597C12.8258 11.7931 12.8168 11.7246 12.806 11.6544L12.797 11.5932C12.7844 11.5103 12.7682 11.4256 12.7483 11.3356H15.0436V15.327H5.02128V11.3356H7.2967C7.27869 11.4347 7.26427 11.5283 7.25346 11.622L7.24626 11.7012C7.23905 11.7643 7.23364 11.8273 7.23004 11.8886C7.23004 11.9156 7.22824 11.9426 7.22644 11.9858C7.22644 12.0399 7.22464 12.0921 7.22644 12.1425C7.22644 12.1749 7.22824 12.2056 7.23004 12.2362C7.23364 12.2848 7.23725 12.3334 7.24445 12.3983C7.24806 12.4217 7.24986 12.4433 7.25346 12.4649C7.26067 12.5154 7.27148 12.5622 7.28409 12.609L7.28949 12.6288C7.2931 12.6451 7.2967 12.6631 7.30211 12.6793C7.32373 12.7531 7.34715 12.8162 7.37237 12.8738C7.80475 13.8464 9.0929 14.1905 10.064 14.1905C10.6261 14.1905 11.1575 14.0896 11.6025 13.8987C12.0727 13.6969 12.4295 13.3961 12.6366 13.0269C12.6673 12.9729 12.6943 12.917 12.7213 12.8486C12.7465 12.7891 12.7664 12.7243 12.7862 12.6487C12.7898 12.6324 12.7934 12.6144 12.797 12.5982L12.8006 12.5802C12.8114 12.5334 12.8204 12.4847 12.8276 12.4325C12.8312 12.4073 12.833 12.3821 12.8366 12.3479C12.8402 12.2992 12.8438 12.2506 12.8456 12.2002C12.8456 12.1695 12.8456 12.1407 12.8456 12.1101C12.8456 12.0579 12.842 12.0038 12.8402 11.948H12.8366ZM11.7124 12.4451C11.6962 12.4847 11.6728 12.5244 11.6458 12.5622L11.6295 12.5802C11.3953 12.8738 10.8549 13.0737 10.2225 13.1008C10.1703 13.1026 10.118 13.1044 10.064 13.1044C9.26585 13.1044 8.5344 12.8144 8.36325 12.4307C8.3128 12.3154 8.22452 11.9408 8.50557 10.9357C8.62808 10.4944 8.81004 9.98109 9.04605 9.41011C9.33971 8.69503 9.6676 8.01238 9.91262 7.52426V7.52786C10.2171 8.05741 10.4927 8.57436 10.7324 9.06428C10.7936 9.18676 10.8531 9.31104 10.9107 9.43352C11.1755 10.0009 11.3827 10.5124 11.5269 10.9573C11.5971 11.1771 11.653 11.3824 11.6926 11.5661C11.7412 11.7967 11.7647 11.9966 11.7611 12.1605C11.7593 12.2776 11.743 12.3713 11.7142 12.4451H11.7124ZM11.7412 8.66261L11.7034 8.58696C11.044 7.24327 10.345 6.13554 10.3396 6.12473C10.2387 5.96263 10.0568 5.86716 9.86578 5.87076C9.69283 5.87617 9.53249 5.96263 9.4352 6.10312H9.42799L9.36133 6.231H9.36494L8.18489 8.66261H5.02308V4.67117H15.0454V8.66261H11.743H11.7412ZM3.33679 10.2495C3.19806 10.2495 3.08636 10.1378 3.08636 9.9991C3.08636 9.86041 3.19806 9.74873 3.33679 9.74873H7.7489C7.72908 9.80277 7.70927 9.8568 7.69125 9.91084L7.64621 10.0423C7.62279 10.1126 7.59937 10.181 7.57775 10.2495H3.33679ZM16.665 16.4113C16.8037 16.4113 16.9154 16.523 16.9154 16.6617C16.9154 16.8004 16.8037 16.9121 16.665 16.9121H3.33679C3.19806 16.9121 3.08636 16.8004 3.08636 16.6617C3.08636 16.523 3.19806 16.4113 3.33679 16.4113H16.665ZM12.4241 10.2495C12.3988 10.181 12.3718 10.1108 12.3448 10.0405L12.2871 9.89103C12.2673 9.8442 12.2493 9.79556 12.2295 9.74693H16.665C16.8037 9.74693 16.9154 9.85861 16.9154 9.9973C16.9154 10.136 16.8037 10.2477 16.665 10.2477H12.4241V10.2495Z" fill="black"/>
</svg>
