<svg width="20" height="20" viewBox="0 0 20 20" fill="none" xmlns="http://www.w3.org/2000/svg">
<rect width="20" height="20" fill="white"/>
<path d="M2.22314 11.9487C2.23172 11.7394 2.30031 11.5594 2.38606 11.3794C2.51468 11.1156 2.71189 10.9315 2.99056 10.8352C3.26495 10.7389 3.53933 10.7514 3.81371 10.8728L7.1106 12.5431L13.1942 10.0021L14.3218 10.517L10.236 13.9706L13.3957 15.7706L14.7419 15.0841L15.5565 15.4566L13.9702 17.7799L2.28745 12.4008C2.28745 12.4008 2.21028 12.1329 2.22743 11.9487H2.22314Z" fill="black"/>
<path d="M16.6666 11.1123C16.5888 11.1123 16.5156 11.0932 16.4423 11.0501C16.2227 10.921 16.1449 10.6293 16.2684 10.3998C16.6574 9.67781 16.8633 8.86017 16.8633 8.02818C16.8633 5.3553 14.7812 3.1797 12.223 3.1797C9.66492 3.1797 7.58273 5.3553 7.58273 8.02818C7.58273 8.29117 7.3768 8.50634 7.1251 8.50634C6.87341 8.50634 6.66748 8.29117 6.66748 8.02818C6.66748 4.82933 9.15696 2.22339 12.223 2.22339C15.2891 2.22339 17.7786 4.82455 17.7786 8.02818C17.7786 9.02274 17.5315 10.0077 17.0693 10.8684C16.9869 11.0262 16.8313 11.1123 16.6711 11.1123H16.6666Z" fill="black"/>
<path d="M11.6271 8.88949C11.4935 8.88949 11.365 8.83807 11.2622 8.74037C11.0617 8.53983 11.0617 8.21588 11.2622 8.01534L13.5701 5.70656C13.7705 5.50602 14.0943 5.50602 14.2948 5.70656C14.4953 5.9071 14.4953 6.23105 14.2948 6.43159L11.9869 8.74037C11.8841 8.84321 11.7556 8.88949 11.622 8.88949H11.6271Z" fill="black"/>
</svg>
