<svg width="20" height="20" viewBox="0 0 20 20" fill="none" xmlns="http://www.w3.org/2000/svg">
<mask id="mask0_236_13016" style="mask-type:luminance" maskUnits="userSpaceOnUse" x="0" y="0" width="20" height="20">
<path d="M20 0H0V19.7917H20V0Z" fill="white"/>
</mask>
<g mask="url(#mask0_236_13016)">
<path d="M12.9167 11.5438H12.2583L12.025 11.3212C12.8417 10.3811 13.3333 9.16058 13.3333 7.8329C13.3333 4.8724 10.9083 2.47266 7.91666 2.47266C4.925 2.47266 2.5 4.8724 2.5 7.8329C2.5 10.7934 4.925 13.1932 7.91666 13.1932C9.25834 13.1932 10.4917 12.7066 11.4417 11.8984L11.6667 12.1293V12.7808L15.8333 16.8959L17.075 15.6671L12.9167 11.5438ZM7.91666 11.5438C5.84166 11.5438 4.16666 9.8863 4.16666 7.8329C4.16666 5.77951 5.84166 4.12196 7.91666 4.12196C9.9917 4.12196 11.6667 5.77951 11.6667 7.8329C11.6667 9.8863 9.9917 11.5438 7.91666 11.5438Z" fill="white"/>
</g>
</svg>
