<svg width="21" height="20" viewBox="0 0 21 20" fill="none" xmlns="http://www.w3.org/2000/svg">
<mask id="mask0_1613_40193" style="mask-type:luminance" maskUnits="userSpaceOnUse" x="0" y="0" width="21" height="20">
<path d="M20.5 0H0.5V20H20.5V0Z" fill="white"/>
</mask>
<g mask="url(#mask0_1613_40193)">
<path d="M13.452 11.63L13.4374 11.6153H13.4167H12.7785L12.5935 11.437C13.3994 10.4832 13.8833 9.25254 13.8833 7.91532C13.8833 4.89604 11.436 2.44866 8.41666 2.44866C5.39739 2.44866 2.95 4.89604 2.95 7.91532C2.95 10.9346 5.39739 13.382 8.41666 13.382C9.7539 13.382 10.9846 12.898 11.9383 12.0922L12.1167 12.2772V12.9153V12.936L12.1313 12.9507L16.298 17.1091L16.3333 17.1444L16.3687 17.1091L17.6103 15.8674L17.6457 15.8321L17.6104 15.7967L13.452 11.63ZM8.41666 11.6153C6.36928 11.6153 4.71666 9.96272 4.71666 7.91532C4.71666 5.86794 6.36928 4.21532 8.41666 4.21532C10.4641 4.21532 12.1167 5.86794 12.1167 7.91532C12.1167 9.96272 10.4641 11.6153 8.41666 11.6153Z" fill="black" stroke="black" stroke-width="0.1"/>
</g>
</svg>
