<svg width="20" height="21" viewBox="0 0 20 21" fill="none" xmlns="http://www.w3.org/2000/svg">
<path d="M1.23474 17.0364L9.24949 2.97388C9.58705 2.38501 10.4179 2.38501 10.7468 2.97388L18.7703 17.0364C19.1078 17.6253 18.6837 18.3548 18.0173 18.3548H1.97909C1.31264 18.3548 0.897189 17.6253 1.22609 17.0364H1.23474ZM10.0025 15.718C10.2448 15.718 10.4526 15.6301 10.617 15.4631C10.7815 15.2962 10.868 15.0852 10.868 14.8391C10.868 14.593 10.7815 14.3821 10.617 14.2151C10.4526 14.0481 10.2448 13.9602 10.0025 13.9602C9.76015 13.9602 9.55243 14.0481 9.38798 14.2151C9.22353 14.3821 9.13698 14.593 9.13698 14.8391C9.13698 15.0852 9.22353 15.2962 9.38798 15.4631C9.55243 15.6301 9.76015 15.718 10.0025 15.718ZM10.0025 13.0813C10.4785 13.0813 10.868 12.6858 10.868 12.2024V9.56568C10.868 9.08228 10.4785 8.68677 10.0025 8.68677C9.52646 8.68677 9.13698 9.08228 9.13698 9.56568V12.2024C9.13698 12.6858 9.52646 13.0813 10.0025 13.0813Z" fill="#FF455C"/>
</svg>
